<?xml version="1.0" encoding="UTF-8"?>
<svg id="Layer_1" data-name="Layer 1" xmlns="http://www.w3.org/2000/svg" viewBox="0 0 1158.97 1026.58">
  <defs>
    <style>
      .cls-1, .cls-2, .cls-3 {
        fill: #1a2653;
      }

      .cls-1, .cls-4, .cls-5, .cls-3, .cls-6, .cls-7, .cls-8 {
        font-family: Montserrat-Black, Montserrat;
        font-weight: 800;
      }

      .cls-1, .cls-5, .cls-6, .cls-8 {
        font-size: 78px;
      }

      .cls-9 {
        fill: #ed1c24;
      }

      .cls-10 {
        fill: #576476;
      }

      .cls-4, .cls-3, .cls-6 {
        stroke: #ffcd05;
      }

      .cls-4, .cls-3, .cls-6, .cls-8 {
        stroke-miterlimit: 10;
      }

      .cls-4, .cls-3, .cls-7 {
        font-size: 60px;
      }

      .cls-4, .cls-6, .cls-8 {
        fill: none;
        stroke-width: 2px;
      }

      .cls-5, .cls-7 {
        fill: #fff;
      }

      .cls-11 {
        fill: #ffcd05;
      }

      .cls-12 {
        fill: #034ea2;
      }

      .cls-8 {
        stroke: #ec2027;
      }
    </style>
  </defs>
  <g>
    <text class="cls-7" transform="translate(1543.04 987.91) rotate(-.96) scale(1.23 1)"><tspan x="0" y="0">I</tspan></text>
    <text class="cls-7" transform="translate(1568.79 987.38) rotate(-.29) scale(1.23 1)"><tspan x="0" y="0">N</tspan></text>
    <text class="cls-7" transform="translate(1627.99 987.1) rotate(.59) scale(1.23 1)"><tspan x="0" y="0">C</tspan></text>
    <text class="cls-3" transform="translate(1543.04 987.91) rotate(-.96) scale(1.23 1)"><tspan x="0" y="0">I</tspan></text>
    <text class="cls-3" transform="translate(1568.79 987.38) rotate(-.29) scale(1.23 1)"><tspan x="0" y="0">N</tspan></text>
    <text class="cls-3" transform="translate(1627.99 987.1) rotate(.59) scale(1.23 1)"><tspan x="0" y="0">C</tspan></text>
    <text class="cls-4" transform="translate(1543.04 987.91) rotate(-.96) scale(1.23 1)"><tspan x="0" y="0">I</tspan></text>
    <text class="cls-4" transform="translate(1568.79 987.38) rotate(-.29) scale(1.23 1)"><tspan x="0" y="0">N</tspan></text>
    <text class="cls-4" transform="translate(1627.99 987.1) rotate(.59) scale(1.23 1)"><tspan x="0" y="0">C</tspan></text>
  </g>
  <g>
    <text class="cls-5" transform="translate(1360.46 920.66) rotate(-3.82) scale(1.23 1)"><tspan x="0" y="0">E</tspan></text>
    <text class="cls-5" transform="translate(1424.64 916.42) rotate(-2.61) scale(1.23 1)"><tspan x="0" y="0">L</tspan></text>
    <text class="cls-5" transform="translate(1483.56 913.71) rotate(-1.54) scale(1.23 1)"><tspan x="0" y="0">E</tspan></text>
    <text class="cls-5" transform="translate(1547.89 911.95) rotate(-.46) scale(1.23 1)"><tspan x="0" y="0">C</tspan></text>
    <text class="cls-5" transform="translate(1618.62 911.42) rotate(.57) scale(1.23 1)"><tspan x="0" y="0">T</tspan></text>
    <text class="cls-5" transform="translate(1681.15 911.99) rotate(1.65) scale(1.23 1)"><tspan x="0" y="0">R</tspan></text>
    <text class="cls-5" transform="translate(1752.42 914.19) rotate(2.56) scale(1.23 1)"><tspan x="0" y="0">I</tspan></text>
    <text class="cls-5" transform="translate(1785.78 915.51) rotate(3.57) scale(1.23 1)"><tspan x="0" y="0">C</tspan></text>
    <text class="cls-1" transform="translate(1360.46 920.66) rotate(-3.82) scale(1.23 1)"><tspan x="0" y="0">E</tspan></text>
    <text class="cls-1" transform="translate(1424.64 916.42) rotate(-2.61) scale(1.23 1)"><tspan x="0" y="0">L</tspan></text>
    <text class="cls-1" transform="translate(1483.56 913.71) rotate(-1.54) scale(1.23 1)"><tspan x="0" y="0">E</tspan></text>
    <text class="cls-1" transform="translate(1547.89 911.95) rotate(-.46) scale(1.23 1)"><tspan x="0" y="0">C</tspan></text>
    <text class="cls-1" transform="translate(1618.62 911.42) rotate(.57) scale(1.23 1)"><tspan x="0" y="0">T</tspan></text>
    <text class="cls-1" transform="translate(1681.15 911.99) rotate(1.65) scale(1.23 1)"><tspan x="0" y="0">R</tspan></text>
    <text class="cls-1" transform="translate(1752.42 914.19) rotate(2.56) scale(1.23 1)"><tspan x="0" y="0">I</tspan></text>
    <text class="cls-1" transform="translate(1785.78 915.51) rotate(3.57) scale(1.23 1)"><tspan x="0" y="0">C</tspan></text>
    <text class="cls-8" transform="translate(1360.46 920.66) rotate(-3.82) scale(1.23 1)"><tspan x="0" y="0">E</tspan></text>
    <text class="cls-8" transform="translate(1424.64 916.42) rotate(-2.61) scale(1.23 1)"><tspan x="0" y="0">L</tspan></text>
    <text class="cls-8" transform="translate(1483.56 913.71) rotate(-1.54) scale(1.23 1)"><tspan x="0" y="0">E</tspan></text>
    <text class="cls-8" transform="translate(1547.89 911.95) rotate(-.46) scale(1.23 1)"><tspan x="0" y="0">C</tspan></text>
    <text class="cls-8" transform="translate(1618.62 911.42) rotate(.57) scale(1.23 1)"><tspan x="0" y="0">T</tspan></text>
    <text class="cls-8" transform="translate(1681.15 911.99) rotate(1.65) scale(1.23 1)"><tspan x="0" y="0">R</tspan></text>
    <text class="cls-8" transform="translate(1752.42 914.19) rotate(2.56) scale(1.23 1)"><tspan x="0" y="0">I</tspan></text>
    <text class="cls-8" transform="translate(1785.78 915.51) rotate(3.57) scale(1.23 1)"><tspan x="0" y="0">C</tspan></text>
  </g>
  <text/>
  <g>
    <text class="cls-5" transform="translate(1330.14 850.52) rotate(-4.52) scale(1.23 1)"><tspan x="0" y="0">F</tspan></text>
    <text class="cls-5" transform="translate(1391.48 845.7) rotate(-3.24) scale(1.23 1)"><tspan x="0" y="0">L</tspan></text>
    <text class="cls-5" transform="translate(1451.3 842.24) rotate(-1.98) scale(1.23 1)"><tspan x="0" y="0">A</tspan></text>
    <text class="cls-5" transform="translate(1524.44 839.42) rotate(-.48) scale(1.23 1)"><tspan x="0" y="0">W</tspan></text>
    <text class="cls-5" transform="translate(1638.46 838.78) rotate(.86) scale(1.23 1)"><tspan x="0" y="0">L</tspan></text>
    <text class="cls-5" transform="translate(1697.47 839.64) rotate(1.87) scale(1.23 1)"><tspan x="0" y="0">E</tspan></text>
    <text class="cls-5" transform="translate(1761.78 841.73) rotate(3.01) scale(1.23 1)"><tspan x="0" y="0">S</tspan></text>
    <text class="cls-5" transform="translate(1824.47 845.01) rotate(4.31) scale(1.23 1)"><tspan x="0" y="0">S</tspan></text>
    <text class="cls-1" transform="translate(1330.14 850.52) rotate(-4.52) scale(1.23 1)"><tspan x="0" y="0">F</tspan></text>
    <text class="cls-1" transform="translate(1391.48 845.7) rotate(-3.24) scale(1.23 1)"><tspan x="0" y="0">L</tspan></text>
    <text class="cls-1" transform="translate(1451.3 842.24) rotate(-1.98) scale(1.23 1)"><tspan x="0" y="0">A</tspan></text>
    <text class="cls-1" transform="translate(1524.44 839.42) rotate(-.48) scale(1.23 1)"><tspan x="0" y="0">W</tspan></text>
    <text class="cls-1" transform="translate(1638.46 838.78) rotate(.86) scale(1.23 1)"><tspan x="0" y="0">L</tspan></text>
    <text class="cls-1" transform="translate(1697.47 839.64) rotate(1.87) scale(1.23 1)"><tspan x="0" y="0">E</tspan></text>
    <text class="cls-1" transform="translate(1761.78 841.73) rotate(3.01) scale(1.23 1)"><tspan x="0" y="0">S</tspan></text>
    <text class="cls-1" transform="translate(1824.47 845.01) rotate(4.31) scale(1.23 1)"><tspan x="0" y="0">S</tspan></text>
    <text class="cls-6" transform="translate(1330.14 850.52) rotate(-4.52) scale(1.23 1)"><tspan x="0" y="0">F</tspan></text>
    <text class="cls-6" transform="translate(1391.48 845.7) rotate(-3.24) scale(1.23 1)"><tspan x="0" y="0">L</tspan></text>
    <text class="cls-6" transform="translate(1451.3 842.24) rotate(-1.98) scale(1.23 1)"><tspan x="0" y="0">A</tspan></text>
    <text class="cls-6" transform="translate(1524.44 839.42) rotate(-.48) scale(1.23 1)"><tspan x="0" y="0">W</tspan></text>
    <text class="cls-6" transform="translate(1638.46 838.78) rotate(.86) scale(1.23 1)"><tspan x="0" y="0">L</tspan></text>
    <text class="cls-6" transform="translate(1697.47 839.64) rotate(1.87) scale(1.23 1)"><tspan x="0" y="0">E</tspan></text>
    <text class="cls-6" transform="translate(1761.78 841.73) rotate(3.01) scale(1.23 1)"><tspan x="0" y="0">S</tspan></text>
    <text class="cls-6" transform="translate(1824.47 845.01) rotate(4.31) scale(1.23 1)"><tspan x="0" y="0">S</tspan></text>
  </g>
  <text/>
  <g id="Generative_Object" data-name="Generative Object">
    <g>
      <g>
        <path class="cls-9" d="M668.83,401.67c4.67,37.37-8.94,73.33-32.26,102.15l-21.19,26.19-1.37-4.45c-.34-1.12-1.5-1.6-2.45-1.5l13.23-22.85c21.5-37.13,29.92-78.13,18.1-120.28-11.07-39.47-39.93-74.35-78.88-87.54.07-.5.24-.72.26-.85,54.9,7.28,97.74,54.43,104.56,109.13Z"/>
        <path class="cls-12" d="M612.01,534.64c.05-.07.09-.15.14-.22-.05.11-.09.19-.14.22Z"/>
        <path class="cls-2" d="M611.75,534.53c.1.13.18.16.25.12-8.03,12.49-14.51,25.7-16.98,40.79-2.03.42-3.91.54-5.58-.04,4.04-16.29,10.52-31.11,18.56-45.13l3.75,4.26Z"/>
        <path class="cls-11" d="M611.1,396.24l-95.04,166.05,23.31-120.46-59.86,9.22,15.77-31.56,63.5-126.48c.18-.35.77-.76.59-1.55l6.14-10.84-1.24,11.92c-.02.13-.19.35-.26.85l-15.59,111.91,62.68-9.06Z"/>
        <path class="cls-2" d="M597.89,585.86c.4,2.9-1.67,7.23-5.68,7.23l-94.57.15c-4.07.01-7.09-2.35-7.32-6.19-.22-3.5,2.62-7.07,6.83-7.08l93.9-.05c3.8,0,6.38,2.58,6.84,5.94Z"/>
        <path class="cls-2" d="M590.82,611.05l-94.7-.13c-3.62,0-5.81-3.79-5.71-6.6.11-3.13,2.55-6.12,6.22-6.13l93.92-.07c4.03-.01,7.17,2.32,7.28,6.19.1,3.71-2.63,6.75-7.01,6.74Z"/>
        <path class="cls-2" d="M559.87,652.38c-9.5,6.7-23.48,6.12-32.52-.91l-19.89-15.41,72.98-.1c-7.01,5.82-13.32,11.31-20.57,16.42Z"/>
        <path class="cls-9" d="M533.12,290.96c-18.76,4.62-35.51,13.71-49.87,27.09-38.62,35.99-52.12,92.33-37.22,142.81,3.91,13.24,8.91,25.48,15.78,37.28l13.74,23.57c10.21,17.52,18.43,33.23,23.26,53.71-1.89.61-3.67.48-5.65.23-4.7-27.31-16.56-40.94-33.23-61.41-13.49-16.56-24.68-31.45-32.56-51.86-14.64-37.88-10.92-77.08,10.05-111.78,20.57-34.05,56.04-56.43,95.7-59.64Z"/>
        <path class="cls-2" d="M589.31,630.4l-90.15.04c-4.13.01-7.57-2.32-8.6-6.15-.59-2.18-.16-4.21,1.27-6,1.07-1.35,2.8-2.45,5.31-2.45l93.92-.02c4.47,0,7.53,3.61,6.69,7.98-.74,3.84-4.01,6.59-8.44,6.6Z"/>
      </g>
      <path class="cls-10" d="M559.38,291.46c.18.79-.42,1.2-.59,1.55-.76-2.21-1.64.01-3.58-2.08,1.67.06,2.8.78,4.17.53Z"/>
    </g>
  </g>
</svg>