<?xml version="1.0" encoding="UTF-8"?>
<svg id="Layer_1" data-name="Layer 1" xmlns="http://www.w3.org/2000/svg" viewBox="0 0 720 720">
  <defs>
    <style>
      .cls-1, .cls-2, .cls-3 {
        fill: #1a2653;
      }

      .cls-1, .cls-4, .cls-5, .cls-6 {
        font-size: 78px;
      }

      .cls-1, .cls-4, .cls-5, .cls-6, .cls-3 {
        font-family: Montserrat-Black, Montserrat;
        font-weight: 800;
      }

      .cls-7 {
        fill: #ed1c24;
      }

      .cls-8 {
        fill: #576476;
      }

      .cls-4 {
        fill: #fff;
      }

      .cls-5 {
        stroke: #ffcd05;
      }

      .cls-5, .cls-6 {
        fill: none;
        stroke-miterlimit: 10;
        stroke-width: 2px;
      }

      .cls-9 {
        fill: #ffcd05;
      }

      .cls-10 {
        fill: #034ea2;
      }

      .cls-6 {
        stroke: #ec2027;
      }

      .cls-3 {
        font-size: 50px;
      }
    </style>
  </defs>
  <g>
    <text class="cls-4" transform="translate(941.49 571.13) rotate(-3.82) scale(1.23 1)"><tspan x="0" y="0">E</tspan></text>
    <text class="cls-4" transform="translate(1005.67 566.89) rotate(-2.61) scale(1.23 1)"><tspan x="0" y="0">L</tspan></text>
    <text class="cls-4" transform="translate(1064.58 564.18) rotate(-1.54) scale(1.23 1)"><tspan x="0" y="0">E</tspan></text>
    <text class="cls-4" transform="translate(1128.92 562.42) rotate(-.46) scale(1.23 1)"><tspan x="0" y="0">C</tspan></text>
    <text class="cls-4" transform="translate(1199.65 561.89) rotate(.57) scale(1.23 1)"><tspan x="0" y="0">T</tspan></text>
    <text class="cls-4" transform="translate(1262.17 562.47) rotate(1.65) scale(1.23 1)"><tspan x="0" y="0">R</tspan></text>
    <text class="cls-4" transform="translate(1333.44 564.67) rotate(2.56) scale(1.23 1)"><tspan x="0" y="0">I</tspan></text>
    <text class="cls-4" transform="translate(1366.8 565.99) rotate(3.57) scale(1.23 1)"><tspan x="0" y="0">C</tspan></text>
    <text class="cls-1" transform="translate(941.49 571.13) rotate(-3.82) scale(1.23 1)"><tspan x="0" y="0">E</tspan></text>
    <text class="cls-1" transform="translate(1005.67 566.89) rotate(-2.61) scale(1.23 1)"><tspan x="0" y="0">L</tspan></text>
    <text class="cls-1" transform="translate(1064.58 564.18) rotate(-1.54) scale(1.23 1)"><tspan x="0" y="0">E</tspan></text>
    <text class="cls-1" transform="translate(1128.92 562.42) rotate(-.46) scale(1.23 1)"><tspan x="0" y="0">C</tspan></text>
    <text class="cls-1" transform="translate(1199.65 561.89) rotate(.57) scale(1.23 1)"><tspan x="0" y="0">T</tspan></text>
    <text class="cls-1" transform="translate(1262.17 562.47) rotate(1.65) scale(1.23 1)"><tspan x="0" y="0">R</tspan></text>
    <text class="cls-1" transform="translate(1333.44 564.67) rotate(2.56) scale(1.23 1)"><tspan x="0" y="0">I</tspan></text>
    <text class="cls-1" transform="translate(1366.8 565.99) rotate(3.57) scale(1.23 1)"><tspan x="0" y="0">C</tspan></text>
    <text class="cls-6" transform="translate(941.49 571.13) rotate(-3.82) scale(1.23 1)"><tspan x="0" y="0">E</tspan></text>
    <text class="cls-6" transform="translate(1005.67 566.89) rotate(-2.61) scale(1.23 1)"><tspan x="0" y="0">L</tspan></text>
    <text class="cls-6" transform="translate(1064.58 564.18) rotate(-1.54) scale(1.23 1)"><tspan x="0" y="0">E</tspan></text>
    <text class="cls-6" transform="translate(1128.92 562.42) rotate(-.46) scale(1.23 1)"><tspan x="0" y="0">C</tspan></text>
    <text class="cls-6" transform="translate(1199.65 561.89) rotate(.57) scale(1.23 1)"><tspan x="0" y="0">T</tspan></text>
    <text class="cls-6" transform="translate(1262.17 562.47) rotate(1.65) scale(1.23 1)"><tspan x="0" y="0">R</tspan></text>
    <text class="cls-6" transform="translate(1333.44 564.67) rotate(2.56) scale(1.23 1)"><tspan x="0" y="0">I</tspan></text>
    <text class="cls-6" transform="translate(1366.8 565.99) rotate(3.57) scale(1.23 1)"><tspan x="0" y="0">C</tspan></text>
  </g>
  <text/>
  <g>
    <text class="cls-4" transform="translate(911.17 501) rotate(-4.52) scale(1.23 1)"><tspan x="0" y="0">F</tspan></text>
    <text class="cls-4" transform="translate(972.51 496.18) rotate(-3.24) scale(1.23 1)"><tspan x="0" y="0">L</tspan></text>
    <text class="cls-4" transform="translate(1032.32 492.72) rotate(-1.98) scale(1.23 1)"><tspan x="0" y="0">A</tspan></text>
    <text class="cls-4" transform="translate(1105.46 489.9) rotate(-.48) scale(1.23 1)"><tspan x="0" y="0">W</tspan></text>
    <text class="cls-4" transform="translate(1219.49 489.26) rotate(.86) scale(1.23 1)"><tspan x="0" y="0">L</tspan></text>
    <text class="cls-4" transform="translate(1278.49 490.11) rotate(1.87) scale(1.23 1)"><tspan x="0" y="0">E</tspan></text>
    <text class="cls-4" transform="translate(1342.8 492.21) rotate(3.01) scale(1.23 1)"><tspan x="0" y="0">S</tspan></text>
    <text class="cls-4" transform="translate(1405.49 495.48) rotate(4.31) scale(1.23 1)"><tspan x="0" y="0">S</tspan></text>
    <text class="cls-1" transform="translate(911.17 501) rotate(-4.52) scale(1.23 1)"><tspan x="0" y="0">F</tspan></text>
    <text class="cls-1" transform="translate(972.51 496.18) rotate(-3.24) scale(1.23 1)"><tspan x="0" y="0">L</tspan></text>
    <text class="cls-1" transform="translate(1032.32 492.72) rotate(-1.98) scale(1.23 1)"><tspan x="0" y="0">A</tspan></text>
    <text class="cls-1" transform="translate(1105.46 489.9) rotate(-.48) scale(1.23 1)"><tspan x="0" y="0">W</tspan></text>
    <text class="cls-1" transform="translate(1219.49 489.26) rotate(.86) scale(1.23 1)"><tspan x="0" y="0">L</tspan></text>
    <text class="cls-1" transform="translate(1278.49 490.11) rotate(1.87) scale(1.23 1)"><tspan x="0" y="0">E</tspan></text>
    <text class="cls-1" transform="translate(1342.8 492.21) rotate(3.01) scale(1.23 1)"><tspan x="0" y="0">S</tspan></text>
    <text class="cls-1" transform="translate(1405.49 495.48) rotate(4.31) scale(1.23 1)"><tspan x="0" y="0">S</tspan></text>
    <text class="cls-5" transform="translate(911.17 501) rotate(-4.52) scale(1.23 1)"><tspan x="0" y="0">F</tspan></text>
    <text class="cls-5" transform="translate(972.51 496.18) rotate(-3.24) scale(1.23 1)"><tspan x="0" y="0">L</tspan></text>
    <text class="cls-5" transform="translate(1032.32 492.72) rotate(-1.98) scale(1.23 1)"><tspan x="0" y="0">A</tspan></text>
    <text class="cls-5" transform="translate(1105.46 489.9) rotate(-.48) scale(1.23 1)"><tspan x="0" y="0">W</tspan></text>
    <text class="cls-5" transform="translate(1219.49 489.26) rotate(.86) scale(1.23 1)"><tspan x="0" y="0">L</tspan></text>
    <text class="cls-5" transform="translate(1278.49 490.11) rotate(1.87) scale(1.23 1)"><tspan x="0" y="0">E</tspan></text>
    <text class="cls-5" transform="translate(1342.8 492.21) rotate(3.01) scale(1.23 1)"><tspan x="0" y="0">S</tspan></text>
    <text class="cls-5" transform="translate(1405.49 495.48) rotate(4.31) scale(1.23 1)"><tspan x="0" y="0">S</tspan></text>
  </g>
  <text/>
  <g>
    <polyline class="cls-9" points="185.36 621.52 185.36 650.3 358.89 650.3"/>
    <polyline class="cls-9" points="532.31 621.51 532.31 650.29 358.78 650.29"/>
  </g>
  <text class="cls-3" transform="translate(304.05 633.05) scale(1.09 1)"><tspan x="0" y="0">INC</tspan></text>
  <g>
    <text class="cls-4" transform="translate(103.03 581.58) rotate(-3.82) scale(1.23 1)"><tspan x="0" y="0">E</tspan></text>
    <text class="cls-4" transform="translate(167.21 577.34) rotate(-2.61) scale(1.23 1)"><tspan x="0" y="0">L</tspan></text>
    <text class="cls-4" transform="translate(226.13 574.64) rotate(-1.54) scale(1.23 1)"><tspan x="0" y="0">E</tspan></text>
    <text class="cls-4" transform="translate(290.46 572.87) rotate(-.46) scale(1.23 1)"><tspan x="0" y="0">C</tspan></text>
    <text class="cls-4" transform="translate(361.19 572.34) rotate(.57) scale(1.23 1)"><tspan x="0" y="0">T</tspan></text>
    <text class="cls-4" transform="translate(423.72 572.92) rotate(1.65) scale(1.23 1)"><tspan x="0" y="0">R</tspan></text>
    <text class="cls-4" transform="translate(494.99 575.12) rotate(2.56) scale(1.23 1)"><tspan x="0" y="0">I</tspan></text>
    <text class="cls-4" transform="translate(528.35 576.44) rotate(3.57) scale(1.23 1)"><tspan x="0" y="0">C</tspan></text>
    <text class="cls-1" transform="translate(103.03 581.58) rotate(-3.82) scale(1.23 1)"><tspan x="0" y="0">E</tspan></text>
    <text class="cls-1" transform="translate(167.21 577.34) rotate(-2.61) scale(1.23 1)"><tspan x="0" y="0">L</tspan></text>
    <text class="cls-1" transform="translate(226.13 574.64) rotate(-1.54) scale(1.23 1)"><tspan x="0" y="0">E</tspan></text>
    <text class="cls-1" transform="translate(290.46 572.87) rotate(-.46) scale(1.23 1)"><tspan x="0" y="0">C</tspan></text>
    <text class="cls-1" transform="translate(361.19 572.34) rotate(.57) scale(1.23 1)"><tspan x="0" y="0">T</tspan></text>
    <text class="cls-1" transform="translate(423.72 572.92) rotate(1.65) scale(1.23 1)"><tspan x="0" y="0">R</tspan></text>
    <text class="cls-1" transform="translate(494.99 575.12) rotate(2.56) scale(1.23 1)"><tspan x="0" y="0">I</tspan></text>
    <text class="cls-1" transform="translate(528.35 576.44) rotate(3.57) scale(1.23 1)"><tspan x="0" y="0">C</tspan></text>
  </g>
  <text/>
  <g>
    <text class="cls-4" transform="translate(72.71 511.45) rotate(-4.52) scale(1.23 1)"><tspan x="0" y="0">F</tspan></text>
    <text class="cls-4" transform="translate(134.05 506.63) rotate(-3.24) scale(1.23 1)"><tspan x="0" y="0">L</tspan></text>
    <text class="cls-4" transform="translate(193.87 503.17) rotate(-1.98) scale(1.23 1)"><tspan x="0" y="0">A</tspan></text>
    <text class="cls-4" transform="translate(267.01 500.35) rotate(-.48) scale(1.23 1)"><tspan x="0" y="0">W</tspan></text>
    <text class="cls-4" transform="translate(381.03 499.71) rotate(.86) scale(1.23 1)"><tspan x="0" y="0">L</tspan></text>
    <text class="cls-4" transform="translate(440.04 500.56) rotate(1.87) scale(1.23 1)"><tspan x="0" y="0">E</tspan></text>
    <text class="cls-4" transform="translate(504.35 502.66) rotate(3.01) scale(1.23 1)"><tspan x="0" y="0">S</tspan></text>
    <text class="cls-4" transform="translate(567.04 505.93) rotate(4.31) scale(1.23 1)"><tspan x="0" y="0">S</tspan></text>
    <text class="cls-1" transform="translate(72.71 511.45) rotate(-4.52) scale(1.23 1)"><tspan x="0" y="0">F</tspan></text>
    <text class="cls-1" transform="translate(134.05 506.63) rotate(-3.24) scale(1.23 1)"><tspan x="0" y="0">L</tspan></text>
    <text class="cls-1" transform="translate(193.87 503.17) rotate(-1.98) scale(1.23 1)"><tspan x="0" y="0">A</tspan></text>
    <text class="cls-1" transform="translate(267.01 500.35) rotate(-.48) scale(1.23 1)"><tspan x="0" y="0">W</tspan></text>
    <text class="cls-1" transform="translate(381.03 499.71) rotate(.86) scale(1.23 1)"><tspan x="0" y="0">L</tspan></text>
    <text class="cls-1" transform="translate(440.04 500.56) rotate(1.87) scale(1.23 1)"><tspan x="0" y="0">E</tspan></text>
    <text class="cls-1" transform="translate(504.35 502.66) rotate(3.01) scale(1.23 1)"><tspan x="0" y="0">S</tspan></text>
    <text class="cls-1" transform="translate(567.04 505.93) rotate(4.31) scale(1.23 1)"><tspan x="0" y="0">S</tspan></text>
  </g>
  <text/>
  <g id="Generative_Object" data-name="Generative Object">
    <g>
      <g>
        <path class="cls-7" d="M489.79,156.95c4.66,37.37-8.95,73.33-32.27,102.15l-21.19,26.19-1.36-4.45c-.35-1.12-1.51-1.6-2.46-1.5l13.23-22.85c21.5-37.13,29.92-78.13,18.1-120.28-11.07-39.47-39.92-74.35-78.87-87.54.07-.5.23-.72.25-.85,54.9,7.28,97.74,54.43,104.57,109.13Z"/>
        <path class="cls-10" d="M432.96,289.91c.05-.07.09-.15.14-.22-.05.11-.09.19-.14.22Z"/>
        <path class="cls-2" d="M432.7,289.8c.1.14.18.17.25.12-8.02,12.49-14.51,25.71-16.98,40.8-2.02.42-3.9.54-5.58-.04,4.05-16.29,10.52-31.11,18.56-45.13l3.75,4.25Z"/>
        <path class="cls-9" d="M432.06,151.51l-95.05,166.05,23.31-120.45-59.86,9.22,15.78-31.57,63.49-126.47c.18-.35.78-.76.6-1.55l6.14-10.84-1.25,11.92c-.02.13-.18.35-.25.85l-15.59,111.91,62.68-9.07Z"/>
        <path class="cls-2" d="M418.84,341.14c.4,2.9-1.67,7.22-5.68,7.23l-94.57.15c-4.07.01-7.08-2.35-7.32-6.2-.22-3.5,2.62-7.07,6.83-7.07l93.9-.05c3.8,0,6.39,2.58,6.84,5.94Z"/>
        <path class="cls-2" d="M412.01,371.1c4.48,0,7.53,3.61,6.69,7.98-.74,3.84-4,6.59-8.43,6.59l-90.16.05c-4.13.01-7.57-2.32-8.6-6.15-.58-2.18-.16-4.21,1.27-6,1.07-1.35,2.8-2.45,5.31-2.45l93.92-.02Z"/>
        <path class="cls-2" d="M418.78,359.59c.1,3.71-2.63,6.75-7.01,6.74l-94.69-.13c-3.63-.01-5.82-3.8-5.72-6.6.11-3.13,2.55-6.13,6.22-6.13l93.92-.08c4.04,0,7.17,2.32,7.28,6.2Z"/>
        <path class="cls-2" d="M328.42,391.34l72.97-.1c-7,5.82-13.32,11.3-20.57,16.42-9.49,6.7-23.48,6.12-32.52-.91l-19.88-15.41Z"/>
        <path class="cls-7" d="M354.07,46.24c-18.76,4.62-35.51,13.71-49.86,27.09-38.63,35.99-52.13,92.33-37.23,142.81,3.91,13.24,8.91,25.48,15.79,37.28l13.73,23.57c10.21,17.51,18.43,33.22,23.26,53.71-1.89.61-3.67.48-5.65.23-4.7-27.31-16.56-40.94-33.23-61.41-13.49-16.56-24.67-31.45-32.56-51.86-14.64-37.88-10.92-77.08,10.05-111.78,20.58-34.05,56.04-56.43,95.7-59.64Z"/>
      </g>
      <path class="cls-8" d="M380.32,46.74c.18.79-.42,1.2-.59,1.55-.76-2.21-1.64.01-3.58-2.08,1.67.06,2.8.78,4.17.53Z"/>
    </g>
  </g>
</svg>