<?xml version="1.0" encoding="UTF-8"?>
<svg id="Layer_1" data-name="Layer 1" xmlns="http://www.w3.org/2000/svg" viewBox="0 0 1168.26 1126.45">
  <defs>
    <style>
      .cls-1, .cls-2, .cls-3, .cls-4, .cls-5, .cls-6 {
        font-family: Montserrat-Black, Montserrat;
        font-weight: 800;
      }

      .cls-1, .cls-3 {
        font-size: 78px;
      }

      .cls-1, .cls-4, .cls-6 {
        fill: #1a2653;
      }

      .cls-2 {
        fill: none;
        stroke-width: 2px;
      }

      .cls-2, .cls-4 {
        stroke: #ffcd05;
        stroke-miterlimit: 10;
      }

      .cls-2, .cls-4, .cls-5 {
        font-size: 60px;
      }

      .cls-3, .cls-5 {
        fill: #fff;
      }

      .cls-7 {
        fill: #ffcd05;
      }

      .cls-6 {
        font-size: 50px;
      }
    </style>
  </defs>
  <g>
    <text class="cls-5" transform="translate(1605.75 -126.93) rotate(-.96) scale(1.23 1)"><tspan x="0" y="0">I</tspan></text>
    <text class="cls-5" transform="translate(1631.5 -127.46) rotate(-.29) scale(1.23 1)"><tspan x="0" y="0">N</tspan></text>
    <text class="cls-5" transform="translate(1690.69 -127.74) rotate(.59) scale(1.23 1)"><tspan x="0" y="0">C</tspan></text>
    <text class="cls-4" transform="translate(1605.75 -126.93) rotate(-.96) scale(1.23 1)"><tspan x="0" y="0">I</tspan></text>
    <text class="cls-4" transform="translate(1631.5 -127.46) rotate(-.29) scale(1.23 1)"><tspan x="0" y="0">N</tspan></text>
    <text class="cls-4" transform="translate(1690.69 -127.74) rotate(.59) scale(1.23 1)"><tspan x="0" y="0">C</tspan></text>
    <text class="cls-2" transform="translate(1605.75 -126.93) rotate(-.96) scale(1.23 1)"><tspan x="0" y="0">I</tspan></text>
    <text class="cls-2" transform="translate(1631.5 -127.46) rotate(-.29) scale(1.23 1)"><tspan x="0" y="0">N</tspan></text>
    <text class="cls-2" transform="translate(1690.69 -127.74) rotate(.59) scale(1.23 1)"><tspan x="0" y="0">C</tspan></text>
  </g>
  <g>
    <polyline class="cls-7" points="394.13 658.51 394.13 687.3 567.66 687.3"/>
    <polyline class="cls-7" points="741.08 658.5 741.08 687.28 567.55 687.28"/>
  </g>
  <text class="cls-6" transform="translate(512.82 670.05) scale(1.09 1)"><tspan x="0" y="0">INC</tspan></text>
  <g>
    <text class="cls-3" transform="translate(311.81 618.58) rotate(-3.82) scale(1.23 1)"><tspan x="0" y="0">E</tspan></text>
    <text class="cls-3" transform="translate(375.98 614.34) rotate(-2.61) scale(1.23 1)"><tspan x="0" y="0">L</tspan></text>
    <text class="cls-3" transform="translate(434.9 611.63) rotate(-1.54) scale(1.23 1)"><tspan x="0" y="0">E</tspan></text>
    <text class="cls-3" transform="translate(499.24 609.87) rotate(-.46) scale(1.23 1)"><tspan x="0" y="0">C</tspan></text>
    <text class="cls-3" transform="translate(569.96 609.34) rotate(.57) scale(1.23 1)"><tspan x="0" y="0">T</tspan></text>
    <text class="cls-3" transform="translate(632.49 609.91) rotate(1.65) scale(1.23 1)"><tspan x="0" y="0">R</tspan></text>
    <text class="cls-3" transform="translate(703.76 612.11) rotate(2.57) scale(1.23 1)"><tspan x="0" y="0">I</tspan></text>
    <text class="cls-3" transform="translate(737.12 613.43) rotate(3.57) scale(1.23 1)"><tspan x="0" y="0">C</tspan></text>
    <text class="cls-1" transform="translate(311.81 618.58) rotate(-3.82) scale(1.23 1)"><tspan x="0" y="0">E</tspan></text>
    <text class="cls-1" transform="translate(375.98 614.34) rotate(-2.61) scale(1.23 1)"><tspan x="0" y="0">L</tspan></text>
    <text class="cls-1" transform="translate(434.9 611.63) rotate(-1.54) scale(1.23 1)"><tspan x="0" y="0">E</tspan></text>
    <text class="cls-1" transform="translate(499.24 609.87) rotate(-.46) scale(1.23 1)"><tspan x="0" y="0">C</tspan></text>
    <text class="cls-1" transform="translate(569.96 609.34) rotate(.57) scale(1.23 1)"><tspan x="0" y="0">T</tspan></text>
    <text class="cls-1" transform="translate(632.49 609.91) rotate(1.65) scale(1.23 1)"><tspan x="0" y="0">R</tspan></text>
    <text class="cls-1" transform="translate(703.76 612.11) rotate(2.57) scale(1.23 1)"><tspan x="0" y="0">I</tspan></text>
    <text class="cls-1" transform="translate(737.12 613.43) rotate(3.57) scale(1.23 1)"><tspan x="0" y="0">C</tspan></text>
  </g>
  <text/>
  <g>
    <text class="cls-3" transform="translate(281.48 548.44) rotate(-4.52) scale(1.23 1)"><tspan x="0" y="0">F</tspan></text>
    <text class="cls-3" transform="translate(342.82 543.62) rotate(-3.24) scale(1.23 1)"><tspan x="0" y="0">L</tspan></text>
    <text class="cls-3" transform="translate(402.64 540.16) rotate(-1.98) scale(1.23 1)"><tspan x="0" y="0">A</tspan></text>
    <text class="cls-3" transform="translate(475.78 537.35) rotate(-.48) scale(1.23 1)"><tspan x="0" y="0">W</tspan></text>
    <text class="cls-3" transform="translate(589.8 536.7) rotate(.86) scale(1.23 1)"><tspan x="0" y="0">L</tspan></text>
    <text class="cls-3" transform="translate(648.81 537.56) rotate(1.87) scale(1.23 1)"><tspan x="0" y="0">E</tspan></text>
    <text class="cls-3" transform="translate(713.12 539.65) rotate(3.01) scale(1.23 1)"><tspan x="0" y="0">S</tspan></text>
    <text class="cls-3" transform="translate(775.81 542.93) rotate(4.31) scale(1.23 1)"><tspan x="0" y="0">S</tspan></text>
    <text class="cls-1" transform="translate(281.48 548.44) rotate(-4.52) scale(1.23 1)"><tspan x="0" y="0">F</tspan></text>
    <text class="cls-1" transform="translate(342.82 543.62) rotate(-3.24) scale(1.23 1)"><tspan x="0" y="0">L</tspan></text>
    <text class="cls-1" transform="translate(402.64 540.16) rotate(-1.98) scale(1.23 1)"><tspan x="0" y="0">A</tspan></text>
    <text class="cls-1" transform="translate(475.78 537.35) rotate(-.48) scale(1.23 1)"><tspan x="0" y="0">W</tspan></text>
    <text class="cls-1" transform="translate(589.8 536.7) rotate(.86) scale(1.23 1)"><tspan x="0" y="0">L</tspan></text>
    <text class="cls-1" transform="translate(648.81 537.56) rotate(1.87) scale(1.23 1)"><tspan x="0" y="0">E</tspan></text>
    <text class="cls-1" transform="translate(713.12 539.65) rotate(3.01) scale(1.23 1)"><tspan x="0" y="0">S</tspan></text>
    <text class="cls-1" transform="translate(775.81 542.93) rotate(4.31) scale(1.23 1)"><tspan x="0" y="0">S</tspan></text>
  </g>
  <text/>
</svg>